<svg aria-hidden="true" style="position: absolute; width: 0; height: 0; overflow: hidden;" version="1.1" xmlns="http://www.w3.org/2000/svg" xmlns:xlink="http://www.w3.org/1999/xlink">
<defs>
<symbol id="edit" viewBox="0 0 32 32">
<path d="M5.333 28c0-0.736 0.597-1.333 1.333-1.333h18.667c0.736 0 1.333 0.597 1.333 1.333s-0.597 1.333-1.333 1.333h-18.667c-0.736 0-1.333-0.597-1.333-1.333z"></path>
<path d="M22.206 6.118c-1.041-1.041-2.73-1.041-3.771 0l-9.208 9.208-1.224 6.005 6.005-1.224 9.208-9.208c1.041-1.041 1.041-2.73 0-3.771l-1.010-1.010zM16.549 4.232c2.083-2.083 5.46-2.083 7.542 0l1.010 1.010c2.083 2.083 2.083 5.46 0 7.542l-9.208 9.208c-0.37 0.37-0.841 0.623-1.353 0.727l-6.005 1.224c-1.873 0.382-3.527-1.273-3.146-3.145l1.224-6.005c0.104-0.513 0.357-0.983 0.727-1.353l9.208-9.208z"></path>
</symbol>
<symbol id="delete" viewBox="0 0 32 32">
<path d="M16 5.333c-5.891 0-10.667 4.776-10.667 10.667s4.776 10.667 10.667 10.667c5.891 0 10.667-4.776 10.667-10.667s-4.776-10.667-10.667-10.667zM2.667 16c0-7.364 5.97-13.333 13.333-13.333s13.333 5.97 13.333 13.333c0 7.364-5.97 13.333-13.333 13.333s-13.333-5.97-13.333-13.333z"></path>
<path d="M11.057 11.057c0.521-0.521 1.365-0.521 1.886 0l3.057 3.057 3.057-3.057c0.521-0.521 1.365-0.521 1.886 0s0.521 1.365 0 1.886l-3.057 3.057 3.057 3.057c0.521 0.521 0.521 1.365 0 1.886s-1.365 0.521-1.886 0l-3.057-3.057-3.057 3.057c-0.521 0.521-1.365 0.521-1.886 0s-0.521-1.365 0-1.886l3.057-3.057-3.057-3.057c-0.521-0.521-0.521-1.365 0-1.886z"></path>
</symbol>
</defs>
</svg>
